<svg width="72" height="72" viewBox="0 0 72 72" fill="none" xmlns="http://www.w3.org/2000/svg">
<rect width="72" height="72" rx="36" fill="#295C7A"/>
<path d="M20.7587 41.728L26.9267 24.784H28.7507L34.6787 41.728L36.5747 42.04V43H30.5027V42.04L32.4467 41.728L31.1267 37.84H23.9267L22.6067 41.728L24.5747 42.04V43H19.0787V42.04L20.7587 41.728ZM28.5827 30.352L27.5747 27.088L24.3587 36.544H30.6707L28.5827 30.352ZM39.9219 41.824V25.768L38.0499 25.408V24.424L41.5779 23.968L42.0339 24.232V41.824L44.0979 42.064V43H37.9539V42.064L39.9219 41.824ZM48.1016 41.824V25.768L46.2296 25.408V24.424L49.7576 23.968L50.2136 24.232V41.824L52.2776 42.064V43H46.1336V42.064L48.1016 41.824Z" fill="white"/>
</svg>
