<svg width="72" height="72" viewBox="0 0 72 72" fill="none" xmlns="http://www.w3.org/2000/svg">
<rect width="72" height="72" rx="36" fill="#295C7A"/>
<path d="M48.5263 44.3344C48.3539 44.0671 48.1481 43.8308 47.9147 43.6319L45.5419 41.5624C45.5234 41.5346 45.502 41.5082 45.4775 41.4837C45.4362 41.4425 45.3895 41.4103 45.3398 41.3863L43.9049 40.1348L37.2632 34.3411C37.5351 34.0569 37.6848 33.6852 37.6848 33.29C37.6848 32.8828 37.5263 32.5002 37.2382 32.2121C37.1126 32.0866 36.9698 31.988 36.8172 31.9157L37.4317 31.3013C37.6034 31.3469 37.7799 31.3703 37.9565 31.3703C38.4766 31.3702 38.9967 31.1723 39.3925 30.7764C39.7763 30.3926 39.9877 29.8825 39.9877 29.34C39.9877 28.7975 39.7763 28.2874 39.3926 27.9037L35.0839 23.5951C34.7002 23.2114 34.19 23 33.6474 23C33.105 23 32.595 23.2114 32.2113 23.5951C31.6809 24.1255 31.5063 24.8785 31.6864 25.556L25.5558 31.6865C25.3864 31.6415 25.2102 31.6177 25.0301 31.6177C24.4873 31.6177 23.9774 31.8289 23.594 32.2123C22.802 33.0043 22.802 34.293 23.594 35.085L27.9026 39.3937C28.2987 39.7897 28.8188 39.9877 29.339 39.9877C29.8592 39.9877 30.3793 39.7897 30.7754 39.3937C31.3057 38.8633 31.4803 38.1103 31.3002 37.4328L31.9134 36.8196C31.9871 36.9734 32.0871 37.1154 32.2113 37.2396C32.499 37.5273 32.8816 37.6858 33.2886 37.6858C33.6835 37.6858 34.055 37.5363 34.3396 37.2648L41.4137 45.3925C41.4332 45.423 41.456 45.452 41.4826 45.4786C41.4917 45.4877 41.5013 45.4959 41.5109 45.5042L43.6189 47.9261C43.6713 47.988 43.7273 48.0488 43.7855 48.107C44.3644 48.6857 45.1291 48.9998 45.932 48.9998C46.0735 48.9998 46.2164 48.99 46.3594 48.9702C47.3156 48.8379 48.1419 48.2659 48.6265 47.4007C49.1573 46.4525 49.1178 45.2486 48.5263 44.3344ZM32.9295 24.3133C33.1214 24.1214 33.3764 24.0156 33.6474 24.0156C33.9188 24.0156 34.174 24.1214 34.3658 24.3133L38.6745 28.6219C38.8664 28.8138 38.9721 29.0689 38.9721 29.3401C38.9721 29.6113 38.8664 29.8664 38.6744 30.0583C38.2786 30.4542 37.6344 30.4542 37.2386 30.0583L32.9297 25.7494C32.9296 25.7493 32.9296 25.7493 32.9295 25.7492C32.5335 25.3533 32.5335 24.7091 32.9295 24.3133ZM30.0572 38.6756C29.6612 39.0716 29.0168 39.0716 28.6208 38.6756L24.3121 34.3669C23.9161 33.9709 23.9161 33.3266 24.3121 32.9305C24.5037 32.7389 24.7587 32.6334 25.0301 32.6334C25.3014 32.6334 25.5563 32.7388 25.7478 32.9303L30.0572 37.2397C30.4532 37.6355 30.4532 38.2797 30.0572 38.6756ZM32.1952 35.1016L30.7753 36.5215L26.4662 32.2124L32.2113 26.4673L36.5203 30.7764L35.0978 32.1989C35.0932 32.2033 35.0887 32.2076 35.0838 32.2124L32.2127 35.0835C32.2068 35.0893 32.2011 35.0954 32.1952 35.1016ZM34.0084 36.1609C34.0074 36.1619 34.0064 36.1629 34.0054 36.1639L33.6478 36.5215C33.5519 36.6174 33.4244 36.6702 33.2886 36.6702C33.1528 36.6702 33.0253 36.6174 32.9294 36.5215C32.8334 36.4255 32.7805 36.2978 32.7805 36.162C32.7805 36.029 32.8313 35.904 32.9233 35.8096L35.8077 32.9252C36.0054 32.7329 36.3251 32.7353 36.5204 32.9305C36.6164 33.0265 36.6692 33.1541 36.6692 33.29C36.6692 33.4257 36.6165 33.553 36.5204 33.6489L36.1648 34.0044C36.1624 34.0068 36.16 34.0093 36.1576 34.0117L34.0084 36.1609ZM35.06 36.5456L36.5441 35.0615L42.8279 40.5425L40.5349 42.8356L35.06 36.5456ZM41.2032 43.6035L43.595 41.2117L44.3621 41.8808L41.8716 44.3714L41.2032 43.6035ZM47.7404 46.9046C47.4127 47.4897 46.8586 47.8759 46.2202 47.9643C45.5833 48.0524 44.9576 47.8426 44.5035 47.3888C44.4644 47.3498 44.427 47.3091 44.3922 47.2679C44.3906 47.2659 44.389 47.264 44.3873 47.2621L42.5399 45.1394L45.1292 42.5499L47.2494 44.3992C47.2509 44.4006 47.2526 44.402 47.2542 44.4034C47.4129 44.5384 47.5538 44.7004 47.6732 44.8855C48.0572 45.4789 48.0842 46.2904 47.7404 46.9046Z" fill="white"/>
</svg>
