<svg width="72" height="72" viewBox="0 0 72 72" fill="none" xmlns="http://www.w3.org/2000/svg">
<rect width="72" height="72" rx="36" fill="#295C7A"/>
<g clip-path="url(#clip0_1102_13)">
<path d="M36.8437 46.176H34.2121C34.0949 46.176 33.9824 46.1302 33.8995 46.0487C33.8166 45.9672 33.77 45.8567 33.77 45.7415V24.7545C33.77 24.2963 33.9552 23.8569 34.2849 23.5329C34.6146 23.2089 35.0617 23.0269 35.5279 23.0269C35.9941 23.0269 36.4412 23.2089 36.7709 23.5329C37.1006 23.8569 37.2858 24.2963 37.2858 24.7545V45.7419C37.2857 45.8571 37.239 45.9675 37.1561 46.0489C37.0732 46.1303 36.9608 46.176 36.8437 46.176V46.176ZM34.6543 45.3069H36.4015V24.7545C36.4015 24.5268 36.3095 24.3084 36.1456 24.1474C35.9818 23.9864 35.7596 23.8959 35.5279 23.8959C35.2962 23.8959 35.074 23.9864 34.9101 24.1474C34.7463 24.3084 34.6543 24.5268 34.6543 24.7545V45.3069Z" fill="white"/>
<path d="M24.8728 28.8519H23.355C22.9948 28.8456 22.6517 28.7005 22.3993 28.448C22.1469 28.1954 22.0055 27.8556 22.0055 27.5016C22.0055 27.1477 22.1469 26.8078 22.3993 26.5553C22.6517 26.3028 22.9948 26.1577 23.355 26.1514H24.6574C24.7747 26.1514 24.8872 26.1971 24.9701 26.2786C25.053 26.3601 25.0996 26.4706 25.0996 26.5859C25.0996 26.7011 25.053 26.8117 24.9701 26.8931C24.8872 26.9746 24.7747 27.0204 24.6574 27.0204H23.355C23.2276 27.0242 23.1068 27.0765 23.0181 27.1664C22.9294 27.2562 22.8798 27.3765 22.8798 27.5016C22.8798 27.6268 22.9294 27.7471 23.0181 27.8369C23.1068 27.9268 23.2276 27.9791 23.355 27.9829H24.8728C24.99 27.9829 25.1025 28.0287 25.1854 28.1101C25.2683 28.1916 25.3149 28.3022 25.3149 28.4174C25.3149 28.5326 25.2683 28.6432 25.1854 28.7247C25.1025 28.8061 24.99 28.8519 24.8728 28.8519Z" fill="white"/>
<path d="M34.2121 28.8519H27.5471C27.4298 28.8519 27.3174 28.8061 27.2345 28.7247C27.1516 28.6432 27.105 28.5326 27.105 28.4174C27.105 28.3022 27.1516 28.1916 27.2345 28.1101C27.3174 28.0287 27.4298 27.9829 27.5471 27.9829H33.77V27.0204H27.762C27.6447 27.0204 27.5323 26.9746 27.4493 26.8931C27.3664 26.8117 27.3199 26.7011 27.3199 26.5859C27.3199 26.4706 27.3664 26.3601 27.4493 26.2786C27.5323 26.1971 27.6447 26.1514 27.762 26.1514H34.2121C34.3293 26.1514 34.4418 26.1971 34.5247 26.2786C34.6076 26.3601 34.6542 26.4706 34.6542 26.5859V28.4174C34.6542 28.5326 34.6076 28.6432 34.5247 28.7247C34.4418 28.8061 34.3293 28.8519 34.2121 28.8519Z" fill="white"/>
<path d="M43.4122 28.8519H36.8436C36.7264 28.8519 36.6139 28.8061 36.531 28.7247C36.4481 28.6432 36.4015 28.5326 36.4015 28.4174V26.5859C36.4015 26.4706 36.4481 26.3601 36.531 26.2786C36.6139 26.1971 36.7264 26.1514 36.8436 26.1514H43.1973C43.3146 26.1514 43.4271 26.1971 43.51 26.2786C43.5929 26.3601 43.6395 26.4706 43.6395 26.5859C43.6395 26.7011 43.5929 26.8117 43.51 26.8931C43.4271 26.9746 43.3146 27.0204 43.1973 27.0204H37.2857V27.9829H43.4122C43.5295 27.9829 43.6419 28.0287 43.7248 28.1101C43.8078 28.1916 43.8543 28.3022 43.8543 28.4174C43.8543 28.5326 43.8078 28.6432 43.7248 28.7247C43.6419 28.8061 43.5295 28.8519 43.4122 28.8519Z" fill="white"/>
<path d="M47.6964 28.8519H46.183C46.0657 28.8519 45.9533 28.8061 45.8703 28.7247C45.7874 28.6432 45.7408 28.5326 45.7408 28.4174C45.7408 28.3022 45.7874 28.1916 45.8703 28.1101C45.9533 28.0287 46.0657 27.9829 46.183 27.9829H47.6964C47.8237 27.9791 47.9445 27.9268 48.0332 27.8369C48.1219 27.7471 48.1715 27.6268 48.1715 27.5016C48.1715 27.3765 48.1219 27.2562 48.0332 27.1664C47.9445 27.0765 47.8237 27.0242 47.6964 27.0204H46.4009C46.2837 27.0204 46.1712 26.9746 46.0883 26.8931C46.0054 26.8117 45.9588 26.7011 45.9588 26.5859C45.9588 26.4706 46.0054 26.3601 46.0883 26.2786C46.1712 26.1971 46.2837 26.1514 46.4009 26.1514H47.6964C48.0565 26.1577 48.3996 26.3028 48.652 26.5553C48.9044 26.8078 49.0458 27.1477 49.0458 27.5016C49.0458 27.8556 48.9044 28.1954 48.652 28.448C48.3996 28.7005 48.0565 28.8456 47.6964 28.8519Z" fill="white"/>
<path d="M41.1273 48.9725H29.9283C29.8612 48.9724 29.795 48.9574 29.7347 48.9285C29.6744 48.8995 29.6216 48.8575 29.5802 48.8055C29.5389 48.7536 29.5102 48.6931 29.4962 48.6285C29.4822 48.564 29.4833 48.4972 29.4995 48.4332C29.6818 47.5739 30.1512 46.7992 30.8332 46.2323C31.5151 45.6654 32.3703 45.3388 33.2628 45.3047H37.7928C38.6853 45.3388 39.5405 45.6654 40.2224 46.2323C40.9044 46.7992 41.3738 47.5739 41.5561 48.4332C41.5723 48.4972 41.5734 48.564 41.5594 48.6285C41.5455 48.6931 41.5167 48.7536 41.4754 48.8055C41.434 48.8575 41.3812 48.8995 41.3209 48.9285C41.2606 48.9574 41.1944 48.9724 41.1273 48.9725V48.9725ZM30.5398 48.1034H40.5158C40.3054 47.5544 39.9347 47.0786 39.4503 46.7357C38.9659 46.3929 38.3893 46.1981 37.7928 46.1759H33.2628C32.6663 46.1981 32.0897 46.3929 31.6053 46.7357C31.1209 47.0786 30.7502 47.5544 30.5398 48.1034Z" fill="white"/>
<path d="M42.3245 48.9726H28.7311C28.6138 48.9726 28.5013 48.9268 28.4184 48.8453C28.3355 48.7638 28.2889 48.6533 28.2889 48.538C28.2889 48.4228 28.3355 48.3123 28.4184 48.2308C28.5013 48.1493 28.6138 48.1035 28.7311 48.1035H42.3245C42.4418 48.1035 42.5542 48.1493 42.6371 48.2308C42.72 48.3123 42.7666 48.4228 42.7666 48.538C42.7666 48.6533 42.72 48.7638 42.6371 48.8453C42.5542 48.9268 42.4418 48.9726 42.3245 48.9726Z" fill="white"/>
<path d="M50.5599 39.747H39.1351C39.0611 39.7471 38.9882 39.7289 38.9232 39.6941C38.8582 39.6593 38.8032 39.609 38.7631 39.5478C38.723 39.4867 38.6992 39.4166 38.6938 39.3441C38.6884 39.2715 38.7017 39.1988 38.7323 39.1326L43.5868 28.6285C43.6107 28.5764 43.6448 28.5294 43.6872 28.4903C43.7296 28.4512 43.7795 28.4206 43.8339 28.4005C43.8883 28.3803 43.9463 28.3709 44.0044 28.3728C44.0625 28.3747 44.1197 28.3878 44.1727 28.4114C44.2256 28.4351 44.2733 28.4688 44.313 28.5105C44.3527 28.5523 44.3836 28.6014 44.404 28.6549C44.4243 28.7085 44.4338 28.7654 44.4317 28.8226C44.4296 28.8797 44.4161 28.9359 44.3919 28.9878L39.8212 38.878H49.872L45.3053 28.9878C45.2813 28.9359 45.268 28.8797 45.2661 28.8227C45.2642 28.7656 45.2737 28.7088 45.2942 28.6554C45.3146 28.6019 45.3456 28.553 45.3853 28.5113C45.4249 28.4697 45.4726 28.4361 45.5255 28.4125C45.5784 28.389 45.6355 28.3759 45.6935 28.374C45.7516 28.3721 45.8094 28.3815 45.8638 28.4016C45.9181 28.4217 45.9679 28.4521 46.0103 28.4911C46.0527 28.5301 46.0869 28.5769 46.1109 28.6289L50.9605 39.133C50.991 39.1991 51.0041 39.2715 50.9988 39.3438C50.9935 39.4162 50.9698 39.486 50.93 39.547C50.8902 39.6081 50.8355 39.6583 50.7708 39.6933C50.7062 39.7282 50.6337 39.7467 50.5599 39.747V39.747Z" fill="white"/>
<path d="M44.8928 45.2894H44.8008C41.2608 45.2894 38.6912 42.7761 38.6912 39.3129C38.6912 39.1977 38.7377 39.0872 38.8207 39.0057C38.9036 38.9242 39.016 38.8784 39.1333 38.8784H50.5599C50.6771 38.8784 50.7896 38.9242 50.8725 39.0057C50.9554 39.0872 51.002 39.1977 51.002 39.3129C51.002 42.7783 48.4324 45.2894 44.8928 45.2894ZM39.5909 39.7475C39.7881 42.5206 41.8744 44.4203 44.8008 44.4203H44.8928C47.8187 44.4203 49.9055 42.5206 50.1023 39.7475H39.5909Z" fill="white"/>
<path d="M44.8468 29.4714C44.4168 29.4715 43.9966 29.3463 43.6391 29.1116C43.2816 28.8769 43.0029 28.5433 42.8384 28.153C42.6738 27.7626 42.6307 27.3331 42.7146 26.9187C42.7984 26.5043 43.0055 26.1236 43.3094 25.8249C43.6134 25.5261 44.0008 25.3227 44.4224 25.2402C44.8441 25.1578 45.2811 25.2002 45.6783 25.3619C46.0754 25.5236 46.4149 25.7975 46.6537 26.1488C46.8925 26.5002 47.0199 26.9132 47.0198 27.3358C47.0191 27.902 46.7899 28.4448 46.3825 28.8451C45.9752 29.2455 45.4229 29.4707 44.8468 29.4714V29.4714ZM44.8468 26.0687C44.5918 26.0686 44.3425 26.1428 44.1304 26.282C43.9183 26.4212 43.753 26.6191 43.6554 26.8506C43.5577 27.0821 43.5321 27.3369 43.5818 27.5827C43.6315 27.8285 43.7543 28.0543 43.9345 28.2316C44.1148 28.4088 44.3445 28.5295 44.5946 28.5784C44.8447 28.6274 45.104 28.6023 45.3396 28.5064C45.5752 28.4105 45.7766 28.2481 45.9182 28.0397C46.0599 27.8314 46.1355 27.5864 46.1355 27.3358C46.1352 26.9999 45.9993 26.6779 45.7577 26.4403C45.5161 26.2028 45.1885 26.0692 44.8468 26.0687Z" fill="white"/>
<path d="M31.9201 39.7475H20.4957C20.4217 39.7475 20.3489 39.7292 20.284 39.6944C20.2191 39.6595 20.1641 39.6092 20.124 39.5481C20.084 39.487 20.0602 39.4169 20.0549 39.3444C20.0495 39.2719 20.0628 39.1992 20.0934 39.1331L24.9488 28.629C24.9972 28.524 25.0862 28.4422 25.196 28.4017C25.3058 28.3611 25.4275 28.3651 25.5343 28.4128C25.6412 28.4604 25.7244 28.5478 25.7656 28.6558C25.8069 28.7637 25.8028 28.8833 25.7543 28.9883L21.1837 38.8784H31.2344L26.6677 28.9883C26.6423 28.9362 26.6278 28.8796 26.6249 28.8218C26.6221 28.7641 26.631 28.7063 26.6511 28.652C26.6712 28.5977 26.7022 28.5479 26.7422 28.5055C26.7821 28.463 26.8303 28.4289 26.8839 28.405C26.9375 28.3811 26.9953 28.368 27.0541 28.3664C27.1129 28.3648 27.1715 28.3747 27.2263 28.3956C27.2812 28.4165 27.3312 28.4479 27.3736 28.4881C27.4159 28.5282 27.4496 28.5763 27.4728 28.6294L32.3229 39.1335C32.3534 39.1997 32.3666 39.2724 32.3612 39.3448C32.3557 39.4173 32.3319 39.4873 32.2918 39.5484C32.2518 39.6095 32.1967 39.6597 32.1318 39.6945C32.0669 39.7293 31.9941 39.7475 31.9201 39.7475V39.7475Z" fill="white"/>
<path d="M26.2548 45.2894H26.1628C22.6232 45.2894 20.0536 42.7783 20.0536 39.3129C20.0536 39.1977 20.1002 39.0872 20.1831 39.0057C20.266 38.9242 20.3785 38.8784 20.4957 38.8784H31.9223C32.0396 38.8784 32.152 38.9242 32.235 39.0057C32.3179 39.0872 32.3645 39.1977 32.3645 39.3129C32.3645 42.7783 29.7948 45.2894 26.2548 45.2894V45.2894ZM20.9533 39.7475C21.15 42.5206 23.2369 44.4203 26.1628 44.4203H26.2548C29.1812 44.4203 31.2676 42.5206 31.4647 39.7475H20.9533Z" fill="white"/>
<path d="M26.2089 29.4714C25.779 29.4714 25.3587 29.3461 25.0013 29.1114C24.6439 28.8767 24.3653 28.543 24.2008 28.1527C24.0363 27.7623 23.9933 27.3328 24.0772 26.9184C24.1611 26.5041 24.3681 26.1234 24.6722 25.8247C24.9762 25.526 25.3635 25.3226 25.7851 25.2402C26.2068 25.1578 26.6438 25.2002 27.0409 25.3619C27.4381 25.5237 27.7775 25.7975 28.0163 26.1489C28.255 26.5002 28.3824 26.9133 28.3823 27.3358C28.3816 27.902 28.1524 28.4449 27.7449 28.8453C27.3375 29.2457 26.7851 29.4709 26.2089 29.4714V29.4714ZM26.2089 26.0687C25.9539 26.0687 25.7046 26.143 25.4926 26.2822C25.2806 26.4215 25.1154 26.6194 25.0178 26.8509C24.9202 27.0824 24.8947 27.3372 24.9444 27.583C24.9942 27.8287 25.1169 28.0545 25.2972 28.2317C25.4776 28.4089 25.7073 28.5296 25.9574 28.5785C26.2074 28.6274 26.4667 28.6023 26.7022 28.5064C26.9378 28.4105 27.1392 28.2481 27.2808 28.0397C27.4225 27.8313 27.4981 27.5864 27.4981 27.3358C27.4977 26.9998 27.3618 26.6777 27.1201 26.4402C26.8784 26.2026 26.5507 26.069 26.2089 26.0687V26.0687Z" fill="white"/>
</g>
<defs>
<clipPath id="clip0_1102_13">
<rect width="31.0556" height="26" fill="white" transform="translate(20 23)"/>
</clipPath>
</defs>
</svg>
