<svg width="71" height="71" viewBox="0 0 71 71" fill="none" xmlns="http://www.w3.org/2000/svg">
<rect width="71" height="71" rx="35.5" fill="#295C7A"/>
<g clip-path="url(#clip0_1102_4)">
<path d="M31.7341 26.1289H27.7838C27.5939 26.1289 27.4399 26.2798 27.4399 26.4658C27.4399 26.6519 27.5939 26.8027 27.7838 26.8027H31.7341C31.924 26.8027 32.078 26.6519 32.078 26.4658C32.078 26.2798 31.924 26.1289 31.7341 26.1289Z" fill="white"/>
<path d="M31.7341 27.6836H27.7838C27.5939 27.6836 27.4399 27.8344 27.4399 28.0205C27.4399 28.2066 27.5939 28.3574 27.7838 28.3574H31.7341C31.924 28.3574 32.078 28.2066 32.078 28.0205C32.078 27.8344 31.924 27.6836 31.7341 27.6836Z" fill="white"/>
<path d="M45.5923 44.3267L38.3044 37.7105C38.6368 37.3496 38.9505 36.9851 39.2425 36.619C39.8059 37.0057 40.5887 36.9548 41.0935 36.4636C41.6614 35.9111 41.6646 35.0135 41.1005 34.457L38.0657 31.4633C37.5029 30.9082 36.5841 30.9051 36.0174 31.4564C35.5731 31.8888 35.4754 32.5357 35.7254 33.0625C34.3354 34.1044 32.918 35.4712 31.8024 36.8795C31.2769 36.6348 30.6134 36.7148 30.1607 37.1553C29.5928 37.7079 29.5895 38.6055 30.1537 39.162L33.1885 42.1557C33.752 42.7116 34.6687 42.7152 35.2367 42.1625C35.7412 41.6716 35.7986 40.9043 35.408 40.3501C35.7845 40.0659 36.1596 39.7603 36.5311 39.4363L43.2341 46.6212C43.6896 47.1094 44.468 47.1283 44.9474 46.6618L45.6219 46.0054C46.1005 45.5397 46.0889 44.7776 45.5923 44.3267ZM36.5021 31.9345C36.8004 31.6443 37.2829 31.6473 37.5777 31.9381L40.6125 34.9319C40.9087 35.224 40.9072 35.6953 40.6089 35.9855C40.3113 36.2751 39.8288 36.2734 39.5333 35.9819L36.4985 32.9883C36.203 32.6968 36.2046 32.2241 36.5021 31.9345ZM36.1454 33.5961L38.7392 36.1548C37.6806 37.4917 36.312 38.824 34.9376 39.8539L32.3438 37.2953C33.3752 35.9925 34.7381 34.6507 36.1454 33.5961ZM34.7521 41.6845C34.4541 41.9744 33.9728 41.9731 33.6765 41.6809L30.6417 38.6872C30.3455 38.3951 30.3471 37.9237 30.6454 37.6335C30.9433 37.3436 31.4247 37.3449 31.7209 37.6371L34.7558 40.6308C35.0513 40.9222 35.0497 41.3949 34.7521 41.6845ZM45.1372 45.5274L44.4627 46.1837C44.2554 46.3855 43.9285 46.3668 43.7418 46.1666L37.0374 38.9802C37.1724 38.855 37.3069 38.7282 37.4405 38.5983C37.5749 38.4675 37.706 38.3357 37.8355 38.2035L45.1248 44.821C45.3325 45.0096 45.3397 45.3303 45.1372 45.5274Z" fill="white"/>
<path d="M41.4948 46.3104C41.4308 46.3208 41.3651 46.3261 41.2994 46.3261H26.902C26.2473 46.3261 25.7146 45.8042 25.7146 45.1627V25.8372C25.7146 25.1957 26.2473 24.6738 26.902 24.6738H38.1087C38.155 24.6738 38.2006 24.6784 38.2453 24.6857V26.9922C38.2453 28.0052 39.0866 28.8293 40.1205 28.8293H42.4747C42.4822 28.8732 42.4868 28.9178 42.4868 28.9632V40.7201C42.4868 40.9062 42.6408 41.0571 42.8307 41.0571C43.0207 41.0571 43.1746 40.9062 43.1746 40.7201V28.9632C43.1746 28.5696 43.0182 28.1996 42.7342 27.9213L39.1722 24.4316C38.8882 24.1533 38.5105 24 38.1087 24H26.902C25.8681 24 25.0269 24.8242 25.0269 25.8372V45.1627C25.0269 46.1757 25.8681 46.9999 26.902 46.9999H41.2994C41.4025 46.9999 41.506 46.9916 41.607 46.9752C41.7943 46.9449 41.9212 46.7714 41.8902 46.5878C41.8592 46.4043 41.6821 46.2798 41.4948 46.3104ZM42.0005 28.1555H40.1205C39.4658 28.1555 38.9331 27.6336 38.9331 26.9922V25.1503L42.0005 28.1555Z" fill="white"/>
</g>
<defs>
<clipPath id="clip0_1102_4">
<rect width="21" height="23" fill="white" transform="translate(25 24)"/>
</clipPath>
</defs>
</svg>
